<svg width="635" height="52" viewBox="0 0 635 52" fill="none" xmlns="http://www.w3.org/2000/svg">
<path d="M18.7146 51.65C16.0713 51.65 13.6446 51.325 11.4346 50.675C9.22462 49.9817 7.23129 48.9633 5.45462 47.62C3.67796 46.2767 2.09629 44.6517 0.709622 42.745L6.23462 36.505C8.35796 39.4517 10.438 41.4883 12.4746 42.615C14.5113 43.7417 16.808 44.305 19.3646 44.305C20.838 44.305 22.1813 44.0883 23.3946 43.655C24.608 43.1783 25.5613 42.55 26.2546 41.77C26.948 40.9467 27.2946 40.015 27.2946 38.975C27.2946 38.2383 27.143 37.5667 26.8396 36.96C26.5796 36.31 26.168 35.7467 25.6046 35.27C25.0413 34.75 24.348 34.2733 23.5246 33.84C22.7013 33.4067 21.7696 33.0383 20.7296 32.735C19.6896 32.4317 18.5413 32.15 17.2846 31.89C14.9013 31.4133 12.8213 30.785 11.0446 30.005C9.26796 29.1817 7.77296 28.185 6.55962 27.015C5.34629 25.8017 4.45796 24.4583 3.89462 22.985C3.33129 21.4683 3.04962 19.7567 3.04962 17.85C3.04962 15.9433 3.46129 14.1883 4.28462 12.585C5.15129 10.9817 6.32129 9.595 7.79462 8.425C9.26796 7.255 10.9796 6.345 12.9296 5.695C14.8796 5.045 16.9813 4.72 19.2346 4.72C21.7913 4.72 24.0663 5.02333 26.0596 5.63C28.0963 6.23667 29.873 7.14667 31.3896 8.36C32.9496 9.53 34.228 10.96 35.2246 12.65L29.6346 18.175C28.768 16.8317 27.793 15.7267 26.7096 14.86C25.6263 13.95 24.4563 13.2783 23.1996 12.845C21.943 12.3683 20.6213 12.13 19.2346 12.13C17.6746 12.13 16.3096 12.3467 15.1396 12.78C14.013 13.2133 13.1246 13.8417 12.4746 14.665C11.8246 15.445 11.4996 16.3983 11.4996 17.525C11.4996 18.3917 11.6946 19.1717 12.0846 19.865C12.4746 20.515 13.0163 21.1 13.7096 21.62C14.4463 22.14 15.378 22.595 16.5046 22.985C17.6313 23.375 18.9096 23.7217 20.3396 24.025C22.723 24.5017 24.868 25.1517 26.7746 25.975C28.6813 26.755 30.3063 27.7083 31.6496 28.835C32.993 29.9183 34.0113 31.175 34.7046 32.605C35.398 33.9917 35.7446 35.5517 35.7446 37.285C35.7446 40.275 35.0296 42.8533 33.5996 45.02C32.213 47.1433 30.2413 48.79 27.6846 49.96C25.128 51.0867 22.138 51.65 18.7146 51.65ZM47.5116 51V8.035H55.5066V51H47.5116ZM40.7516 24.155V16.745H62.9816V24.155H40.7516ZM81.1652 51.65C78.6952 51.65 76.5502 51.1083 74.7302 50.025C72.9102 48.8983 71.5236 47.3167 70.5702 45.28C69.6169 43.2 69.1402 40.73 69.1402 37.87V16.745H77.1352V36.18C77.1352 38 77.4169 39.56 77.9802 40.86C78.5436 42.1167 79.3669 43.0917 80.4502 43.785C81.5336 44.4783 82.8336 44.825 84.3502 44.825C85.4769 44.825 86.4952 44.6517 87.4052 44.305C88.3586 43.915 89.1819 43.395 89.8752 42.745C90.5686 42.0517 91.1102 41.25 91.5002 40.34C91.8902 39.3867 92.0852 38.3683 92.0852 37.285V16.745H100.08V51H92.2802L92.1502 43.85L93.5802 43.07C93.0602 44.7167 92.1719 46.19 90.9152 47.49C89.7019 48.7467 88.2502 49.765 86.5602 50.545C84.8702 51.2817 83.0719 51.65 81.1652 51.65ZM123.431 51.65C120.398 51.65 117.668 50.8917 115.241 49.375C112.858 47.815 110.951 45.7133 109.521 43.07C108.134 40.3833 107.441 37.3067 107.441 33.84C107.441 30.4167 108.134 27.3617 109.521 24.675C110.908 21.9883 112.793 19.8867 115.176 18.37C117.603 16.81 120.333 16.03 123.366 16.03C125.013 16.03 126.594 16.29 128.111 16.81C129.671 17.33 131.058 18.045 132.271 18.955C133.484 19.8217 134.438 20.7967 135.131 21.88C135.868 22.9633 136.279 24.09 136.366 25.26L134.221 25.52V2.9H142.216V51H134.481L134.286 42.94L135.846 43.07C135.803 44.1533 135.413 45.1933 134.676 46.19C133.983 47.1867 133.073 48.0967 131.946 48.92C130.819 49.7433 129.498 50.415 127.981 50.935C126.508 51.4117 124.991 51.65 123.431 51.65ZM124.991 44.89C126.854 44.89 128.501 44.4133 129.931 43.46C131.361 42.5067 132.466 41.2067 133.246 39.56C134.069 37.9133 134.481 36.0067 134.481 33.84C134.481 31.7167 134.069 29.8317 133.246 28.185C132.466 26.495 131.361 25.195 129.931 24.285C128.501 23.3317 126.854 22.855 124.991 22.855C123.128 22.855 121.481 23.3317 120.051 24.285C118.621 25.195 117.494 26.495 116.671 28.185C115.891 29.8317 115.501 31.7167 115.501 33.84C115.501 36.0067 115.891 37.9133 116.671 39.56C117.494 41.2067 118.621 42.5067 120.051 43.46C121.481 44.4133 123.128 44.89 124.991 44.89ZM167.547 51.65C163.95 51.65 160.765 50.8917 157.992 49.375C155.262 47.8583 153.117 45.8 151.557 43.2C150.04 40.5567 149.282 37.545 149.282 34.165C149.282 31.4783 149.715 29.03 150.582 26.82C151.448 24.61 152.64 22.7033 154.157 21.1C155.717 19.4533 157.558 18.1967 159.682 17.33C161.848 16.42 164.21 15.965 166.767 15.965C169.02 15.965 171.122 16.3983 173.072 17.265C175.022 18.1317 176.712 19.3233 178.142 20.84C179.572 22.3133 180.655 24.09 181.392 26.17C182.172 28.2067 182.54 30.4383 182.497 32.865L182.432 35.66H154.677L153.182 30.2H175.737L174.697 31.305V29.875C174.567 28.5317 174.133 27.3617 173.397 26.365C172.66 25.325 171.707 24.5233 170.537 23.96C169.41 23.3533 168.153 23.05 166.767 23.05C164.643 23.05 162.845 23.4617 161.372 24.285C159.942 25.1083 158.858 26.3 158.122 27.86C157.385 29.3767 157.017 31.2833 157.017 33.58C157.017 35.79 157.472 37.7183 158.382 39.365C159.335 41.0117 160.657 42.29 162.347 43.2C164.08 44.0667 166.095 44.5 168.392 44.5C169.995 44.5 171.468 44.24 172.812 43.72C174.155 43.2 175.607 42.2683 177.167 40.925L181.132 46.45C179.962 47.5333 178.618 48.465 177.102 49.245C175.628 49.9817 174.068 50.5667 172.422 51C170.775 51.4333 169.15 51.65 167.547 51.65ZM189.777 51V16.745H197.577L197.707 23.765L196.212 24.545C196.646 22.985 197.491 21.5767 198.747 20.32C200.004 19.02 201.499 17.98 203.232 17.2C204.966 16.42 206.742 16.03 208.562 16.03C211.162 16.03 213.329 16.55 215.062 17.59C216.839 18.63 218.161 20.19 219.027 22.27C219.937 24.35 220.392 26.95 220.392 30.07V51H212.397V30.655C212.397 28.9217 212.159 27.4917 211.682 26.365C211.206 25.195 210.469 24.35 209.472 23.83C208.476 23.2667 207.262 23.0067 205.832 23.05C204.662 23.05 203.579 23.245 202.582 23.635C201.629 23.9817 200.784 24.5017 200.047 25.195C199.354 25.845 198.791 26.6033 198.357 27.47C197.967 28.3367 197.772 29.29 197.772 30.33V51H193.807C193.027 51 192.291 51 191.597 51C190.947 51 190.341 51 189.777 51ZM233.292 51V8.035H241.287V51H233.292ZM226.532 24.155V16.745H248.762V24.155H226.532ZM295.092 51.65C291.799 51.65 288.787 51.0867 286.057 49.96C283.327 48.8333 280.965 47.23 278.972 45.15C276.979 43.0267 275.419 40.535 274.292 37.675C273.209 34.7717 272.667 31.6083 272.667 28.185C272.667 24.8917 273.252 21.8367 274.422 19.02C275.592 16.2033 277.217 13.7333 279.297 11.61C281.377 9.48667 283.804 7.84 286.577 6.67C289.35 5.5 292.362 4.915 295.612 4.915C297.822 4.915 299.967 5.24 302.047 5.89C304.127 6.54 306.034 7.45 307.767 8.62C309.5 9.74666 310.952 11.0683 312.122 12.585L306.727 18.5C305.6 17.33 304.43 16.355 303.217 15.575C302.047 14.7517 300.812 14.145 299.512 13.755C298.255 13.3217 296.955 13.105 295.612 13.105C293.619 13.105 291.734 13.4733 289.957 14.21C288.224 14.9467 286.707 15.9867 285.407 17.33C284.15 18.6733 283.154 20.2767 282.417 22.14C281.68 23.96 281.312 25.9967 281.312 28.25C281.312 30.5467 281.659 32.6267 282.352 34.49C283.089 36.3533 284.107 37.9567 285.407 39.3C286.75 40.6433 288.332 41.6833 290.152 42.42C292.015 43.1133 294.052 43.46 296.262 43.46C297.692 43.46 299.079 43.265 300.422 42.875C301.765 42.485 303 41.9433 304.127 41.25C305.297 40.5133 306.359 39.6683 307.312 38.715L311.472 45.41C310.432 46.58 309.045 47.6417 307.312 48.595C305.579 49.5483 303.629 50.3067 301.462 50.87C299.339 51.39 297.215 51.65 295.092 51.65ZM318.991 51V16.745H326.856L326.986 27.665L325.881 25.195C326.357 23.4617 327.181 21.9017 328.351 20.515C329.521 19.1283 330.864 18.045 332.381 17.265C333.941 16.4417 335.566 16.03 337.256 16.03C337.992 16.03 338.686 16.095 339.336 16.225C340.029 16.355 340.592 16.5067 341.026 16.68L338.881 25.455C338.404 25.195 337.819 24.9783 337.126 24.805C336.432 24.6317 335.739 24.545 335.046 24.545C333.962 24.545 332.922 24.7617 331.926 25.195C330.972 25.585 330.127 26.1483 329.391 26.885C328.654 27.6217 328.069 28.4883 327.636 29.485C327.246 30.4383 327.051 31.5217 327.051 32.735V51H318.991ZM361.144 51.65C357.547 51.65 354.362 50.8917 351.589 49.375C348.859 47.8583 346.714 45.8 345.154 43.2C343.637 40.5567 342.879 37.545 342.879 34.165C342.879 31.4783 343.312 29.03 344.179 26.82C345.046 24.61 346.237 22.7033 347.754 21.1C349.314 19.4533 351.156 18.1967 353.279 17.33C355.446 16.42 357.807 15.965 360.364 15.965C362.617 15.965 364.719 16.3983 366.669 17.265C368.619 18.1317 370.309 19.3233 371.739 20.84C373.169 22.3133 374.252 24.09 374.989 26.17C375.769 28.2067 376.137 30.4383 376.094 32.865L376.029 35.66H348.274L346.779 30.2H369.334L368.294 31.305V29.875C368.164 28.5317 367.731 27.3617 366.994 26.365C366.257 25.325 365.304 24.5233 364.134 23.96C363.007 23.3533 361.751 23.05 360.364 23.05C358.241 23.05 356.442 23.4617 354.969 24.285C353.539 25.1083 352.456 26.3 351.719 27.86C350.982 29.3767 350.614 31.2833 350.614 33.58C350.614 35.79 351.069 37.7183 351.979 39.365C352.932 41.0117 354.254 42.29 355.944 43.2C357.677 44.0667 359.692 44.5 361.989 44.5C363.592 44.5 365.066 44.24 366.409 43.72C367.752 43.2 369.204 42.2683 370.764 40.925L374.729 46.45C373.559 47.5333 372.216 48.465 370.699 49.245C369.226 49.9817 367.666 50.5667 366.019 51C364.372 51.4333 362.747 51.65 361.144 51.65ZM397.155 51.65C394.122 51.65 391.392 50.8917 388.965 49.375C386.582 47.815 384.675 45.7133 383.245 43.07C381.858 40.3833 381.165 37.3067 381.165 33.84C381.165 30.4167 381.858 27.3617 383.245 24.675C384.632 21.9883 386.517 19.8867 388.9 18.37C391.327 16.81 394.057 16.03 397.09 16.03C398.737 16.03 400.318 16.29 401.835 16.81C403.395 17.33 404.782 18.045 405.995 18.955C407.208 19.8217 408.162 20.7967 408.855 21.88C409.592 22.9633 410.003 24.09 410.09 25.26L407.945 25.52V2.9H415.94V51H408.205L408.01 42.94L409.57 43.07C409.527 44.1533 409.137 45.1933 408.4 46.19C407.707 47.1867 406.797 48.0967 405.67 48.92C404.543 49.7433 403.222 50.415 401.705 50.935C400.232 51.4117 398.715 51.65 397.155 51.65ZM398.715 44.89C400.578 44.89 402.225 44.4133 403.655 43.46C405.085 42.5067 406.19 41.2067 406.97 39.56C407.793 37.9133 408.205 36.0067 408.205 33.84C408.205 31.7167 407.793 29.8317 406.97 28.185C406.19 26.495 405.085 25.195 403.655 24.285C402.225 23.3317 400.578 22.855 398.715 22.855C396.852 22.855 395.205 23.3317 393.775 24.285C392.345 25.195 391.218 26.495 390.395 28.185C389.615 29.8317 389.225 31.7167 389.225 33.84C389.225 36.0067 389.615 37.9133 390.395 39.56C391.218 41.2067 392.345 42.5067 393.775 43.46C395.205 44.4133 396.852 44.89 398.715 44.89ZM426.126 51V16.745H434.121V51H426.126ZM430.026 9.465C428.422 9.465 427.166 9.075 426.256 8.295C425.389 7.47166 424.956 6.32333 424.956 4.85C424.956 3.46333 425.411 2.33666 426.321 1.47C427.231 0.60333 428.466 0.169996 430.026 0.169996C431.672 0.169996 432.929 0.581664 433.796 1.405C434.706 2.185 435.161 3.33333 435.161 4.85C435.161 6.19333 434.706 7.29833 433.796 8.165C432.886 9.03166 431.629 9.465 430.026 9.465ZM448.164 51V8.035H456.159V51H448.164ZM441.404 24.155V16.745H463.634V24.155H441.404ZM509.964 51.65C506.67 51.65 503.659 51.0867 500.929 49.96C498.199 48.8333 495.837 47.23 493.844 45.15C491.85 43.0267 490.29 40.535 489.164 37.675C488.08 34.7717 487.539 31.6083 487.539 28.185C487.539 24.8917 488.124 21.8367 489.294 19.02C490.464 16.2033 492.089 13.7333 494.169 11.61C496.249 9.48667 498.675 7.84 501.449 6.67C504.222 5.5 507.234 4.915 510.484 4.915C512.694 4.915 514.839 5.24 516.919 5.89C518.999 6.54 520.905 7.45 522.639 8.62C524.372 9.74666 525.824 11.0683 526.994 12.585L521.599 18.5C520.472 17.33 519.302 16.355 518.089 15.575C516.919 14.7517 515.684 14.145 514.384 13.755C513.127 13.3217 511.827 13.105 510.484 13.105C508.49 13.105 506.605 13.4733 504.829 14.21C503.095 14.9467 501.579 15.9867 500.279 17.33C499.022 18.6733 498.025 20.2767 497.289 22.14C496.552 23.96 496.184 25.9967 496.184 28.25C496.184 30.5467 496.53 32.6267 497.224 34.49C497.96 36.3533 498.979 37.9567 500.279 39.3C501.622 40.6433 503.204 41.6833 505.024 42.42C506.887 43.1133 508.924 43.46 511.134 43.46C512.564 43.46 513.95 43.265 515.294 42.875C516.637 42.485 517.872 41.9433 518.999 41.25C520.169 40.5133 521.23 39.6683 522.184 38.715L526.344 45.41C525.304 46.58 523.917 47.6417 522.184 48.595C520.45 49.5483 518.5 50.3067 516.334 50.87C514.21 51.39 512.087 51.65 509.964 51.65ZM546.797 51.65C543.981 51.65 541.424 50.87 539.127 49.31C536.831 47.75 534.989 45.6267 533.602 42.94C532.216 40.2533 531.522 37.1983 531.522 33.775C531.522 30.3517 532.216 27.2967 533.602 24.61C534.989 21.9233 536.874 19.8217 539.257 18.305C541.641 16.7883 544.327 16.03 547.317 16.03C549.051 16.03 550.632 16.29 552.062 16.81C553.492 17.2867 554.749 17.98 555.832 18.89C556.916 19.8 557.804 20.84 558.497 22.01C559.234 23.18 559.732 24.4367 559.992 25.78L558.237 25.325V16.745H566.297V51H558.172V42.81L560.057 42.485C559.754 43.655 559.191 44.8033 558.367 45.93C557.587 47.0133 556.591 47.9883 555.377 48.855C554.207 49.6783 552.886 50.35 551.412 50.87C549.982 51.39 548.444 51.65 546.797 51.65ZM549.007 44.565C550.871 44.565 552.517 44.11 553.947 43.2C555.377 42.29 556.482 41.0333 557.262 39.43C558.086 37.7833 558.497 35.8983 558.497 33.775C558.497 31.695 558.086 29.8533 557.262 28.25C556.482 26.6467 555.377 25.39 553.947 24.48C552.517 23.57 550.871 23.115 549.007 23.115C547.144 23.115 545.497 23.57 544.067 24.48C542.681 25.39 541.597 26.6467 540.817 28.25C540.037 29.8533 539.647 31.695 539.647 33.775C539.647 35.8983 540.037 37.7833 540.817 39.43C541.597 41.0333 542.681 42.29 544.067 43.2C545.497 44.11 547.144 44.565 549.007 44.565ZM575.766 51V16.745H583.631L583.761 27.665L582.656 25.195C583.133 23.4617 583.956 21.9017 585.126 20.515C586.296 19.1283 587.64 18.045 589.156 17.265C590.716 16.4417 592.341 16.03 594.031 16.03C594.768 16.03 595.461 16.095 596.111 16.225C596.805 16.355 597.368 16.5067 597.801 16.68L595.656 25.455C595.18 25.195 594.595 24.9783 593.901 24.805C593.208 24.6317 592.515 24.545 591.821 24.545C590.738 24.545 589.698 24.7617 588.701 25.195C587.748 25.585 586.903 26.1483 586.166 26.885C585.43 27.6217 584.845 28.4883 584.411 29.485C584.021 30.4383 583.826 31.5217 583.826 32.735V51H575.766ZM615.645 51.65C612.611 51.65 609.881 50.8917 607.455 49.375C605.071 47.815 603.165 45.7133 601.735 43.07C600.348 40.3833 599.655 37.3067 599.655 33.84C599.655 30.4167 600.348 27.3617 601.735 24.675C603.121 21.9883 605.006 19.8867 607.39 18.37C609.816 16.81 612.546 16.03 615.58 16.03C617.226 16.03 618.808 16.29 620.325 16.81C621.885 17.33 623.271 18.045 624.485 18.955C625.698 19.8217 626.651 20.7967 627.345 21.88C628.081 22.9633 628.493 24.09 628.58 25.26L626.435 25.52V2.9H634.43V51H626.695L626.5 42.94L628.06 43.07C628.016 44.1533 627.626 45.1933 626.89 46.19C626.196 47.1867 625.286 48.0967 624.16 48.92C623.033 49.7433 621.711 50.415 620.195 50.935C618.721 51.4117 617.205 51.65 615.645 51.65ZM617.205 44.89C619.068 44.89 620.715 44.4133 622.145 43.46C623.575 42.5067 624.68 41.2067 625.46 39.56C626.283 37.9133 626.695 36.0067 626.695 33.84C626.695 31.7167 626.283 29.8317 625.46 28.185C624.68 26.495 623.575 25.195 622.145 24.285C620.715 23.3317 619.068 22.855 617.205 22.855C615.341 22.855 613.695 23.3317 612.265 24.285C610.835 25.195 609.708 26.495 608.885 28.185C608.105 29.8317 607.715 31.7167 607.715 33.84C607.715 36.0067 608.105 37.9133 608.885 39.56C609.708 41.2067 610.835 42.5067 612.265 43.46C613.695 44.4133 615.341 44.89 617.205 44.89Z" fill="white"/>
</svg>
