<svg width="982" height="208" viewBox="0 0 982 208" fill="none" xmlns="http://www.w3.org/2000/svg">
<path d="M0.24726 156.789V40.8492H26.8673L27.3073 64.1692L22.9073 65.9292C24.2273 62.1159 26.2073 58.5959 28.8473 55.3692C31.4873 51.9959 34.6406 49.1359 38.3073 46.7892C41.9739 44.2959 45.8606 42.3892 49.9673 41.0692C54.0739 39.6026 58.2539 38.8692 62.5073 38.8692C68.8139 38.8692 74.3873 39.8959 79.2273 41.9492C84.2139 43.8559 88.3206 46.9359 91.5473 51.1892C94.9206 55.4426 97.4139 60.8692 99.0273 67.4692L94.8473 66.5892L96.6073 63.0692C98.2206 59.5492 100.494 56.3959 103.427 53.6092C106.361 50.6759 109.661 48.1092 113.327 45.9092C116.994 43.5626 120.807 41.8026 124.767 40.6292C128.874 39.4559 132.907 38.8692 136.867 38.8692C145.667 38.8692 153.001 40.6292 158.867 44.1492C164.734 47.6692 169.134 53.0226 172.067 60.2092C175.001 67.3959 176.467 76.2692 176.467 86.8292V156.789H149.187V88.5892C149.187 82.7226 148.381 77.8826 146.767 74.0692C145.301 70.2559 142.954 67.4692 139.727 65.7092C136.647 63.8026 132.761 62.8492 128.067 62.8492C124.401 62.8492 120.881 63.5092 117.507 64.8292C114.281 66.0026 111.494 67.7626 109.147 70.1092C106.801 72.3092 104.967 74.8759 103.647 77.8092C102.327 80.7426 101.667 83.9692 101.667 87.4892V156.789H74.3873V88.3692C74.3873 82.7959 73.5806 78.1759 71.9673 74.5092C70.3539 70.6959 68.0073 67.8359 64.9273 65.9292C61.8473 63.8759 58.1073 62.8492 53.7073 62.8492C50.0406 62.8492 46.5939 63.5092 43.3673 64.8292C40.1406 66.0026 37.3539 67.6892 35.0073 69.8892C32.6606 72.0892 30.8273 74.6559 29.5073 77.5892C28.1873 80.5226 27.5273 83.7492 27.5273 87.2692V156.789H0.24726ZM223.233 207.389L247.873 150.409L248.093 168.449L190.893 40.8492H222.133L254.033 116.529C255.06 118.436 256.087 121.003 257.113 124.229C258.14 127.309 259.02 130.389 259.753 133.469L254.253 135.229C255.28 132.443 256.38 129.509 257.553 126.429C258.727 123.203 259.827 119.903 260.853 116.529L288.133 40.8492H319.593L271.193 156.789L251.393 207.389H223.233Z" fill="white"/>
<path d="M390.353 158.989C381.407 158.989 373.193 157.889 365.713 155.689C358.233 153.343 351.487 149.896 345.473 145.349C339.46 140.803 334.107 135.303 329.413 128.849L348.113 107.729C355.3 117.703 362.34 124.596 369.233 128.409C376.127 132.223 383.9 134.129 392.553 134.129C397.54 134.129 402.087 133.396 406.193 131.929C410.3 130.316 413.527 128.189 415.873 125.549C418.22 122.763 419.393 119.609 419.393 116.089C419.393 113.596 418.88 111.323 417.853 109.269C416.973 107.069 415.58 105.163 413.673 103.549C411.767 101.789 409.42 100.176 406.633 98.7092C403.847 97.2426 400.693 95.9959 397.173 94.9692C393.653 93.9426 389.767 92.9892 385.513 92.1092C377.447 90.4959 370.407 88.3692 364.393 85.7292C358.38 82.9426 353.32 79.5692 349.213 75.6092C345.107 71.5026 342.1 66.9559 340.193 61.9692C338.287 56.8359 337.333 51.0426 337.333 44.5892C337.333 38.1359 338.727 32.1959 341.513 26.7692C344.447 21.3426 348.407 16.6492 353.393 12.6892C358.38 8.72924 364.173 5.64924 370.773 3.44924C377.373 1.24924 384.487 0.149243 392.113 0.149243C400.767 0.149243 408.467 1.17591 415.213 3.22924C422.107 5.28258 428.12 8.36258 433.253 12.4692C438.533 16.4292 442.86 21.2692 446.233 26.9892L427.313 45.6892C424.38 41.1426 421.08 37.4026 417.413 34.4692C413.747 31.3892 409.787 29.1159 405.533 27.6492C401.28 26.0359 396.807 25.2292 392.113 25.2292C386.833 25.2292 382.213 25.9626 378.253 27.4292C374.44 28.8959 371.433 31.0226 369.233 33.8092C367.033 36.4492 365.933 39.6759 365.933 43.4892C365.933 46.4226 366.593 49.0626 367.913 51.4092C369.233 53.6092 371.067 55.5892 373.413 57.3492C375.907 59.1092 379.06 60.6492 382.873 61.9692C386.687 63.2892 391.013 64.4626 395.853 65.4892C403.92 67.1026 411.18 69.3026 417.633 72.0892C424.087 74.7292 429.587 77.9559 434.133 81.7692C438.68 85.4359 442.127 89.6892 444.473 94.5292C446.82 99.2226 447.993 104.503 447.993 110.369C447.993 120.489 445.573 129.216 440.733 136.549C436.04 143.736 429.367 149.309 420.713 153.269C412.06 157.083 401.94 158.989 390.353 158.989ZM474.803 205.189V40.8492H501.423L501.863 67.2492L497.243 65.2692C498.123 60.7226 500.616 56.4692 504.723 52.5092C508.83 48.4026 513.816 45.1026 519.683 42.6092C525.696 40.1159 531.93 38.8692 538.383 38.8692C548.65 38.8692 557.743 41.4359 565.663 46.5692C573.73 51.7026 580.036 58.7426 584.583 67.6892C589.276 76.6359 591.623 86.9759 591.623 98.7092C591.623 110.296 589.276 120.636 584.583 129.729C580.036 138.676 573.73 145.789 565.663 151.069C557.743 156.203 548.796 158.769 538.823 158.769C532.076 158.769 525.55 157.449 519.243 154.809C513.083 152.169 507.803 148.723 503.403 144.469C499.15 140.216 496.51 135.743 495.483 131.049L502.083 127.969V205.189H474.803ZM533.323 134.789C539.483 134.789 544.983 133.249 549.823 130.169C554.663 127.089 558.403 122.836 561.043 117.409C563.83 111.983 565.223 105.749 565.223 98.7092C565.223 91.6692 563.903 85.5092 561.263 80.2292C558.623 74.8026 554.883 70.5492 550.043 67.4692C545.203 64.3892 539.63 62.8492 533.323 62.8492C526.87 62.8492 521.223 64.3892 516.383 67.4692C511.69 70.4026 507.95 74.5826 505.163 80.0092C502.376 85.4359 500.983 91.6692 500.983 98.7092C500.983 105.749 502.376 111.983 505.163 117.409C507.95 122.836 511.69 127.089 516.383 130.169C521.223 133.249 526.87 134.789 533.323 134.789ZM659.72 158.989C650.187 158.989 641.534 156.349 633.76 151.069C625.987 145.789 619.754 138.603 615.06 129.509C610.367 120.416 608.02 110.076 608.02 98.4892C608.02 86.9026 610.367 76.5626 615.06 67.4692C619.754 58.3759 626.134 51.2626 634.2 46.1292C642.267 40.9959 651.36 38.4292 661.48 38.4292C667.347 38.4292 672.7 39.3092 677.54 41.0692C682.38 42.6826 686.634 45.0292 690.3 48.1092C693.967 51.1892 696.974 54.7092 699.32 58.6692C701.814 62.6292 703.5 66.8826 704.38 71.4292L698.44 69.8892V40.8492H725.72V156.789H698.22V129.069L704.6 127.969C703.574 131.929 701.667 135.816 698.88 139.629C696.24 143.296 692.867 146.596 688.76 149.529C684.8 152.316 680.327 154.589 675.34 156.349C670.5 158.109 665.294 158.989 659.72 158.989ZM667.2 135.009C673.507 135.009 679.08 133.469 683.92 130.389C688.76 127.309 692.5 123.056 695.14 117.629C697.927 112.056 699.32 105.676 699.32 98.4892C699.32 91.4492 697.927 85.2159 695.14 79.7892C692.5 74.3626 688.76 70.1092 683.92 67.0292C679.08 63.9492 673.507 62.4092 667.2 62.4092C660.894 62.4092 655.32 63.9492 650.48 67.0292C645.787 70.1092 642.12 74.3626 639.48 79.7892C636.84 85.2159 635.52 91.4492 635.52 98.4892C635.52 105.676 636.84 112.056 639.48 117.629C642.12 123.056 645.787 127.309 650.48 130.389C655.32 133.469 660.894 135.009 667.2 135.009ZM807.013 158.989C796.159 158.989 786.406 156.349 777.753 151.069C769.099 145.789 762.279 138.603 757.293 129.509C752.306 120.416 749.813 110.149 749.813 98.7092C749.813 87.2692 752.306 77.0026 757.293 67.9092C762.279 58.8159 769.099 51.6292 777.753 46.3492C786.406 41.0692 796.159 38.4292 807.013 38.4292C817.426 38.4292 826.886 40.4092 835.393 44.3692C843.899 48.3292 850.499 53.8292 855.193 60.8692L840.233 78.9092C838.033 75.8292 835.246 73.0426 831.873 70.5492C828.499 68.0559 824.906 66.0759 821.093 64.6092C817.279 63.1426 813.466 62.4092 809.653 62.4092C803.199 62.4092 797.406 64.0226 792.273 67.2492C787.286 70.3292 783.326 74.6559 780.393 80.2292C777.459 85.6559 775.993 91.8159 775.993 98.7092C775.993 105.603 777.459 111.763 780.393 117.189C783.473 122.616 787.579 126.943 792.713 130.169C797.846 133.396 803.566 135.009 809.873 135.009C813.686 135.009 817.353 134.423 820.873 133.249C824.539 131.929 827.986 130.096 831.213 127.749C834.439 125.403 837.446 122.469 840.233 118.949L855.193 137.209C850.206 143.663 843.313 148.943 834.513 153.049C825.859 157.009 816.693 158.989 807.013 158.989ZM930.426 158.989C918.253 158.989 907.473 156.423 898.086 151.289C888.846 146.156 881.586 139.189 876.306 130.389C871.173 121.443 868.606 111.249 868.606 99.8092C868.606 90.7159 870.073 82.4292 873.006 74.9492C875.94 67.4692 879.973 61.0159 885.106 55.5892C890.386 50.0159 896.62 45.7626 903.806 42.8292C911.14 39.7492 919.133 38.2092 927.786 38.2092C935.413 38.2092 942.526 39.6759 949.126 42.6092C955.726 45.5426 961.446 49.5759 966.286 54.7092C971.126 59.6959 974.793 65.7092 977.286 72.7492C979.926 79.6426 981.173 87.1959 981.026 95.4092L980.806 104.869H886.866L881.806 86.3892H958.146L954.626 90.1292V85.2892C954.186 80.7426 952.72 76.7826 950.226 73.4092C947.733 69.8892 944.506 67.1759 940.546 65.2692C936.733 63.2159 932.48 62.1892 927.786 62.1892C920.6 62.1892 914.513 63.5826 909.526 66.3692C904.686 69.1559 901.02 73.1892 898.526 78.4692C896.033 83.6026 894.786 90.0559 894.786 97.8292C894.786 105.309 896.326 111.836 899.406 117.409C902.633 122.983 907.106 127.309 912.826 130.389C918.693 133.323 925.513 134.789 933.286 134.789C938.713 134.789 943.7 133.909 948.246 132.149C952.793 130.389 957.706 127.236 962.986 122.689L976.406 141.389C972.446 145.056 967.9 148.209 962.766 150.849C957.78 153.343 952.5 155.323 946.926 156.789C941.353 158.256 935.853 158.989 930.426 158.989Z" fill="#F23467"/>
</svg>
