<svg width="101" height="92" viewBox="0 0 101 92" fill="none" xmlns="http://www.w3.org/2000/svg">
<path d="M44.8723 6.75202C41.6062 9.91759 38.9431 12.6812 38.9431 12.8822C38.9431 13.4349 41.6565 15.9975 42.2092 15.9975C42.4604 15.9975 43.8673 14.8418 45.3245 13.3846L47.9876 10.7718V19.0123V27.3031L34.1696 34.2372L20.3517 41.1211V57.3509V73.5305L14.0708 76.6961C10.6037 78.4045 7.78987 79.6104 7.78987 79.4094C7.78987 79.1582 8.19185 77.7512 8.69432 76.2438C10.5535 70.8171 10.6037 70.9679 7.99086 70.0634C6.28245 69.5107 5.67949 69.4605 5.4785 69.9127C4.47356 72.5758 0.35329 86.0923 0.504032 86.243C0.654773 86.444 16.7339 91.3682 17.0856 91.3682C17.3368 91.3682 18.4925 86.7957 18.2915 86.645C18.191 86.5445 16.3821 85.9415 14.322 85.2381L10.5535 83.9819L16.8344 80.8163L23.1153 77.701L36.8327 84.5346L50.5 91.3682L64.1672 84.5346L77.8847 77.701L84.1655 80.8163L90.4464 83.9819L86.6779 85.2381C84.6178 85.9415 82.8591 86.5445 82.7586 86.5947C82.6079 86.7455 83.7133 91.3682 83.9143 91.3682C84.266 91.3682 100.345 86.444 100.496 86.243C100.647 86.0923 96.6268 72.827 95.5716 70.0634C95.3204 69.4102 95.0189 69.4102 92.9588 70.0634C91.7026 70.5157 90.6977 70.9176 90.6977 70.9176C90.6977 70.9679 91.2504 72.827 91.9538 75.0379C92.6573 77.2488 93.21 79.2084 93.21 79.4094C93.21 79.6606 90.3962 78.4045 86.9291 76.6961L80.6482 73.5305V57.3509V41.1211L66.8303 34.2372L53.0123 27.3031V19.0123V10.7718L55.6754 13.3846C57.1326 14.8418 58.5395 15.9975 58.7907 15.9975C59.4439 15.9975 62.0568 13.3846 62.0568 12.7314C62.0568 12.4802 59.4942 9.66636 56.4291 6.60128L50.7512 0.973602L44.8723 6.75202ZM61.5543 37.0511L72.3575 42.528L61.4036 47.9547L50.5 53.4316L39.5963 47.9547L28.6424 42.528L39.4456 37.0511C45.3747 34.0865 50.3492 31.6244 50.5 31.6244C50.6507 31.6244 55.6252 34.0865 61.5543 37.0511Z" fill="white"/>
</svg>
